<svg xmlns="http://www.w3.org/2000/svg" viewBox="0 0 128 128" role="img">
  <title>Wedding rings favicon</title>
  <defs>
    <linearGradient id="gold" x1="0" y1="0" x2="1" y2="1">
      <stop offset="0%" stop-color="#f6d55c"/>
      <stop offset="100%" stop-color="#d89c27"/>
    </linearGradient>
    <linearGradient id="rose" x1="0" y1="0" x2="1" y2="1">
      <stop offset="0%" stop-color="#f99"/>
      <stop offset="100%" stop-color="#d14"/>
    </linearGradient>
  </defs>
  <rect width="128" height="128" rx="24" fill="#fff"/>
  <path d="M39 48c0-8 6-14 14-14s14 6 14 14-6 14-14 14-14-6-14-14Z" fill="#fff1f3"/>
  <path d="M52 44c0-5 4-9 9-9s9 4 9 9-4 9-9 9-9-4-9-9Z" fill="#ef8" opacity="0.85"/>
  <path d="M46 44c0-6 5-11 11-11s11 5 11 11-5 11-11 11-11-5-11-11Z" fill="url(#rose)" opacity="0.9"/>
  <path d="M27 76a24 24 0 0 1 19-22c8-2 17 1 22 8l3 4-18 14-3-4a8 8 0 0 0-11-1 8 8 0 0 0-1 11l3 4-12 9-2-3a24 24 0 0 1-8-16Z" fill="#a0c77d"/>
  <g transform="translate(35 58) rotate(-10 32 32)">
    <path d="M10 26c0-12 9-22 20-22s20 10 20 22-9 22-20 22-20-10-20-22Z" fill="none" stroke="url(#gold)" stroke-width="12"/>
  </g>
  <g transform="translate(52 46) rotate(10 32 32)">
    <path d="M10 26c0-12 9-22 20-22s20 10 20 22-9 22-20 22-20-10-20-22Z" fill="none" stroke="url(#gold)" stroke-width="12"/>
  </g>
  <circle cx="88" cy="28" r="8" fill="#fde"/>
  <path d="M90 25l-6 2 4 5" fill="none" stroke="#c62" stroke-width="2" stroke-linecap="round"/>
  <path d="M93 28c3-3 6-3 9-1 2 2 2 5 0 8-2 2-5 2-7 0-2-2-2-5 0-7Z" fill="#f99"/>
</svg>
